STARTFONT 2.1
FONT -FontForge-Lato-Book-R-Normal--14-100-100-100-P-72-ISO10646-1
SIZE 10 100 100
FONTBOUNDINGBOX 17 15 -1 -2
COMMENT "Generated by fontforge, http://fontforge.sourceforge.net"
COMMENT "Copyright (c) 2010-2011 by tyPoland Lukasz Dziedzic with Reserved Font Name "Lato". Licensed under the SIL Open Font License, Version 1.1."
STARTPROPERTIES 41
FOUNDRY "FontForge"
FAMILY_NAME "Lato"
WEIGHT_NAME "Book"
SLANT "R"
SETWIDTH_NAME "Normal"
ADD_STYLE_NAME ""
PIXEL_SIZE 14
POINT_SIZE 100
RESOLUTION_X 100
RESOLUTION_Y 100
SPACING "P"
AVERAGE_WIDTH 72
CHARSET_REGISTRY "ISO10646"
CHARSET_ENCODING "1"
FONTNAME_REGISTRY ""
CHARSET_COLLECTIONS "ISO10646-1"
FONT_NAME "Lato-Regular"
FACE_NAME "Lato Regular"
COPYRIGHT "Copyright (c) 2010-2011 by tyPoland Lukasz Dziedzic with Reserved Font Name "Lato". Licensed under the SIL Open Font License, Version 1.1."
FONT_VERSION "1.104; Western+Polish opensource"
FONT_ASCENT 11
FONT_DESCENT 3
UNDERLINE_POSITION -1
UNDERLINE_THICKNESS 1
X_HEIGHT 6
CAP_HEIGHT 9
DEFAULT_CHAR 1
RAW_ASCENT 805
RAW_DESCENT 195
NORM_SPACE 3
RELATIVE_WEIGHT 40
RELATIVE_SETWIDTH 50
SUPERSCRIPT_X 0
SUPERSCRIPT_Y 6
SUPERSCRIPT_SIZE 9
SUBSCRIPT_X 0
SUBSCRIPT_Y 1
SUBSCRIPT_SIZE 9
FIGURE_WIDTH 8
AVG_LOWERCASE_WIDTH 71
AVG_UPPERCASE_WIDTH 93
ENDPROPERTIES
CHARS 275
STARTCHAR NULL.dup1
ENCODING 0
SWIDTH 0 0
DWIDTH 0 0
BBX 1 1 0 0
BITMAP
00
ENDCHAR
STARTCHAR nonmarkingreturn
ENCODING 13
SWIDTH 0 0
DWIDTH 0 0
BBX 1 1 0 0
BITMAP
00
ENDCHAR
STARTCHAR space
ENCODING 32
SWIDTH 193 0
DWIDTH 3 0
BBX 1 1 0 0
BITMAP
00
ENDCHAR
STARTCHAR exclam
ENCODING 33
SWIDTH 343 0
DWIDTH 5 0
BBX 1 10 2 0
BITMAP
80
80
80
80
80
80
00
00
80
80
ENDCHAR
STARTCHAR quotedbl
ENCODING 34
SWIDTH 397 0
DWIDTH 6 0
BBX 3 3 1 7
BITMAP
A0
A0
A0
ENDCHAR
STARTCHAR numbersign
ENCODING 35
SWIDTH 580 0
DWIDTH 8 0
BBX 8 10 0 0
BITMAP
12
12
14
7F
24
24
FE
28
48
48
ENDCHAR
STARTCHAR dollar
ENCODING 36
SWIDTH 580 0
DWIDTH 8 0
BBX 6 13 1 -2
BITMAP
10
78
D4
90
D0
70
1C
14
24
A4
78
20
20
ENDCHAR
STARTCHAR percent
ENCODING 37
SWIDTH 786 0
DWIDTH 11 0
BBX 11 10 0 0
BITMAP
70C0
4880
8900
4A00
7400
05C0
0A40
1240
2260
61C0
ENDCHAR
STARTCHAR ampersand
ENCODING 38
SWIDTH 703 0
DWIDTH 10 0
BBX 9 10 1 0
BITMAP
3800
4400
4000
4000
2000
D100
8A00
8600
8600
7980
ENDCHAR
STARTCHAR quotesingle
ENCODING 39
SWIDTH 230 0
DWIDTH 3 0
BBX 1 3 1 7
BITMAP
80
80
80
ENDCHAR
STARTCHAR parenleft
ENCODING 40
SWIDTH 300 0
DWIDTH 4 0
BBX 3 13 1 -2
BITMAP
40
60
40
C0
80
80
80
80
80
80
40
40
20
ENDCHAR
STARTCHAR parenright
ENCODING 41
SWIDTH 300 0
DWIDTH 4 0
BBX 2 13 1 -2
BITMAP
80
80
80
40
40
40
40
40
40
40
C0
80
80
ENDCHAR
STARTCHAR asterisk
ENCODING 42
SWIDTH 400 0
DWIDTH 6 0
BBX 4 4 1 6
BITMAP
40
B0
E0
50
ENDCHAR
STARTCHAR plus
ENCODING 43
SWIDTH 580 0
DWIDTH 8 0
BBX 6 7 1 1
BITMAP
10
10
10
FC
10
10
10
ENDCHAR
STARTCHAR comma
ENCODING 44
SWIDTH 212 0
DWIDTH 3 0
BBX 1 4 1 -2
BITMAP
80
80
80
80
ENDCHAR
STARTCHAR hyphen
ENCODING 45
SWIDTH 347 0
DWIDTH 5 0
BBX 3 1 1 4
BITMAP
E0
ENDCHAR
STARTCHAR period
ENCODING 46
SWIDTH 212 0
DWIDTH 3 0
BBX 1 2 1 0
BITMAP
80
80
ENDCHAR
STARTCHAR slash
ENCODING 47
SWIDTH 373 0
DWIDTH 5 0
BBX 5 11 0 -1
BITMAP
08
08
10
10
20
20
20
40
40
80
80
ENDCHAR
STARTCHAR zero
ENCODING 48
SWIDTH 580 0
DWIDTH 8 0
BBX 8 10 0 0
BITMAP
3C
66
42
43
C3
C3
43
42
66
3C
ENDCHAR
STARTCHAR one
ENCODING 49
SWIDTH 580 0
DWIDTH 8 0
BBX 6 10 1 0
BITMAP
10
30
D0
10
10
10
10
10
10
7C
ENDCHAR
STARTCHAR two
ENCODING 50
SWIDTH 580 0
DWIDTH 8 0
BBX 6 10 1 0
BITMAP
78
C4
84
04
0C
18
30
60
C0
FC
ENDCHAR
STARTCHAR three
ENCODING 51
SWIDTH 580 0
DWIDTH 8 0
BBX 6 10 1 0
BITMAP
78
C4
84
04
18
04
04
84
C4
78
ENDCHAR
STARTCHAR four
ENCODING 52
SWIDTH 580 0
DWIDTH 8 0
BBX 8 10 0 0
BITMAP
04
0C
14
34
24
44
FF
04
04
04
ENDCHAR
STARTCHAR five
ENCODING 53
SWIDTH 580 0
DWIDTH 8 0
BBX 6 10 1 0
BITMAP
7C
40
40
40
F8
0C
04
04
8C
F8
ENDCHAR
STARTCHAR six
ENCODING 54
SWIDTH 580 0
DWIDTH 8 0
BBX 7 10 1 0
BITMAP
18
10
20
60
F8
C4
84
86
C4
78
ENDCHAR
STARTCHAR seven
ENCODING 55
SWIDTH 580 0
DWIDTH 8 0
BBX 7 10 1 0
BITMAP
FE
04
0C
08
18
10
30
20
60
40
ENDCHAR
STARTCHAR eight
ENCODING 56
SWIDTH 580 0
DWIDTH 8 0
BBX 6 10 1 0
BITMAP
78
C4
84
CC
38
C4
84
84
C4
78
ENDCHAR
STARTCHAR nine
ENCODING 57
SWIDTH 580 0
DWIDTH 8 0
BBX 7 10 1 0
BITMAP
78
C4
84
86
C4
7C
08
10
30
60
ENDCHAR
STARTCHAR colon
ENCODING 58
SWIDTH 252 0
DWIDTH 4 0
BBX 2 7 1 0
BITMAP
C0
80
00
00
00
80
C0
ENDCHAR
STARTCHAR semicolon
ENCODING 59
SWIDTH 252 0
DWIDTH 4 0
BBX 2 9 1 -2
BITMAP
C0
80
00
00
00
80
C0
80
80
ENDCHAR
STARTCHAR less
ENCODING 60
SWIDTH 580 0
DWIDTH 8 0
BBX 5 6 1 2
BITMAP
08
18
60
C0
30
08
ENDCHAR
STARTCHAR equal
ENCODING 61
SWIDTH 580 0
DWIDTH 8 0
BBX 6 3 1 3
BITMAP
FC
00
FC
ENDCHAR
STARTCHAR greater
ENCODING 62
SWIDTH 580 0
DWIDTH 8 0
BBX 5 6 2 2
BITMAP
80
C0
30
18
60
80
ENDCHAR
STARTCHAR question
ENCODING 63
SWIDTH 398 0
DWIDTH 6 0
BBX 5 10 0 0
BITMAP
70
88
08
08
30
20
00
00
20
20
ENDCHAR
STARTCHAR at
ENCODING 64
SWIDTH 822 0
DWIDTH 12 0
BBX 10 11 1 -2
BITMAP
1E00
6180
C080
8E40
9240
A240
A680
9B80
C000
6080
1F00
ENDCHAR
STARTCHAR A
ENCODING 65
SWIDTH 680 0
DWIDTH 10 0
BBX 9 10 0 0
BITMAP
0C00
1C00
1400
1200
3200
2300
7F00
4100
4080
C080
ENDCHAR
STARTCHAR B
ENCODING 66
SWIDTH 647 0
DWIDTH 9 0
BBX 7 10 1 0
BITMAP
FC
C6
C2
C2
C4
FC
C2
C2
C2
FC
ENDCHAR
STARTCHAR C
ENCODING 67
SWIDTH 685 0
DWIDTH 10 0
BBX 8 10 1 0
BITMAP
3E
61
C0
80
80
80
80
C0
61
3E
ENDCHAR
STARTCHAR D
ENCODING 68
SWIDTH 753 0
DWIDTH 11 0
BBX 9 10 1 0
BITMAP
FC00
C300
C100
C180
C180
C180
C180
C100
C300
FC00
ENDCHAR
STARTCHAR E
ENCODING 69
SWIDTH 581 0
DWIDTH 8 0
BBX 6 10 1 0
BITMAP
FC
C0
C0
C0
C0
F8
C0
C0
C0
FC
ENDCHAR
STARTCHAR F
ENCODING 70
SWIDTH 566 0
DWIDTH 8 0
BBX 6 10 1 0
BITMAP
FC
C0
C0
C0
C0
FC
C0
C0
C0
C0
ENDCHAR
STARTCHAR G
ENCODING 71
SWIDTH 734 0
DWIDTH 10 0
BBX 8 10 1 0
BITMAP
3E
61
C0
80
80
87
81
C1
61
3F
ENDCHAR
STARTCHAR H
ENCODING 72
SWIDTH 756 0
DWIDTH 11 0
BBX 8 10 1 0
BITMAP
C1
C1
C1
C1
C1
FF
C1
C1
C1
C1
ENDCHAR
STARTCHAR I
ENCODING 73
SWIDTH 307 0
DWIDTH 4 0
BBX 2 10 1 0
BITMAP
C0
C0
C0
C0
C0
C0
C0
C0
C0
C0
ENDCHAR
STARTCHAR J
ENCODING 74
SWIDTH 444 0
DWIDTH 6 0
BBX 5 10 0 0
BITMAP
08
08
08
08
08
08
08
08
18
F0
ENDCHAR
STARTCHAR K
ENCODING 75
SWIDTH 681 0
DWIDTH 10 0
BBX 8 10 1 0
BITMAP
C3
C6
C4
C8
D8
F0
D8
CC
C6
C3
ENDCHAR
STARTCHAR L
ENCODING 76
SWIDTH 514 0
DWIDTH 7 0
BBX 6 10 1 0
BITMAP
C0
C0
C0
C0
C0
C0
C0
C0
C0
FC
ENDCHAR
STARTCHAR M
ENCODING 77
SWIDTH 920 0
DWIDTH 13 0
BBX 11 10 1 0
BITMAP
C060
C0E0
A0E0
B1E0
9160
9B60
8A60
8C60
8460
8060
ENDCHAR
STARTCHAR N
ENCODING 78
SWIDTH 756 0
DWIDTH 11 0
BBX 8 10 1 0
BITMAP
C1
C1
A1
B1
99
89
85
87
83
81
ENDCHAR
STARTCHAR O
ENCODING 79
SWIDTH 798 0
DWIDTH 11 0
BBX 10 10 1 0
BITMAP
3E00
6100
C080
8080
80C0
80C0
8080
C080
6100
3E00
ENDCHAR
STARTCHAR P
ENCODING 80
SWIDTH 611 0
DWIDTH 9 0
BBX 7 10 1 0
BITMAP
FC
C6
C2
C2
C6
FC
C0
C0
C0
C0
ENDCHAR
STARTCHAR Q
ENCODING 81
SWIDTH 798 0
DWIDTH 11 0
BBX 10 12 1 -2
BITMAP
3E00
6100
C080
8080
80C0
80C0
8080
C080
6100
3F00
0180
00C0
ENDCHAR
STARTCHAR R
ENCODING 82
SWIDTH 644 0
DWIDTH 9 0
BBX 8 10 1 0
BITMAP
FC
C6
C2
C6
C4
F8
C8
CC
C6
C3
ENDCHAR
STARTCHAR S
ENCODING 83
SWIDTH 530 0
DWIDTH 7 0
BBX 7 10 0 0
BITMAP
3C
46
40
60
78
0E
06
02
44
F8
ENDCHAR
STARTCHAR T
ENCODING 84
SWIDTH 590 0
DWIDTH 8 0
BBX 8 10 0 0
BITMAP
FF
18
18
18
18
18
18
18
18
18
ENDCHAR
STARTCHAR U
ENCODING 85
SWIDTH 730 0
DWIDTH 10 0
BBX 8 10 1 0
BITMAP
81
81
81
81
81
81
81
C1
42
3C
ENDCHAR
STARTCHAR V
ENCODING 86
SWIDTH 680 0
DWIDTH 10 0
BBX 9 10 0 0
BITMAP
C080
4180
4100
6100
2300
3200
1600
1400
0C00
0C00
ENDCHAR
STARTCHAR W
ENCODING 87
SWIDTH 1019 0
DWIDTH 14 0
BBX 14 10 0 0
BITMAP
C304
430C
4388
6688
2498
24D0
3C50
3850
1870
1820
ENDCHAR
STARTCHAR X
ENCODING 88
SWIDTH 643 0
DWIDTH 9 0
BBX 9 10 0 0
BITMAP
C180
6300
2200
1400
1C00
1C00
3600
2200
6300
C180
ENDCHAR
STARTCHAR Y
ENCODING 89
SWIDTH 629 0
DWIDTH 9 0
BBX 9 10 0 0
BITMAP
C180
4300
2200
3600
1400
1800
0800
0800
0800
0800
ENDCHAR
STARTCHAR Z
ENCODING 90
SWIDTH 624 0
DWIDTH 9 0
BBX 7 10 1 0
BITMAP
FE
06
0C
08
18
30
20
40
C0
FE
ENDCHAR
STARTCHAR bracketleft
ENCODING 91
SWIDTH 300 0
DWIDTH 4 0
BBX 3 13 1 -2
BITMAP
E0
80
80
80
80
80
80
80
80
80
80
80
E0
ENDCHAR
STARTCHAR backslash
ENCODING 92
SWIDTH 375 0
DWIDTH 5 0
BBX 5 11 0 -1
BITMAP
80
80
40
40
20
20
10
10
10
08
08
ENDCHAR
STARTCHAR bracketright
ENCODING 93
SWIDTH 300 0
DWIDTH 4 0
BBX 2 13 1 -2
BITMAP
C0
40
40
40
40
40
40
40
40
40
40
40
C0
ENDCHAR
STARTCHAR asciicircum
ENCODING 94
SWIDTH 580 0
DWIDTH 8 0
BBX 6 5 1 5
BITMAP
30
30
48
48
84
ENDCHAR
STARTCHAR underscore
ENCODING 95
SWIDTH 394 0
DWIDTH 6 0
BBX 6 1 0 -2
BITMAP
FC
ENDCHAR
STARTCHAR grave
ENCODING 96
SWIDTH 307 0
DWIDTH 4 0
BBX 3 2 0 8
BITMAP
C0
20
ENDCHAR
STARTCHAR a
ENCODING 97
SWIDTH 507 0
DWIDTH 7 0
BBX 5 7 1 0
BITMAP
70
88
08
78
88
88
F8
ENDCHAR
STARTCHAR b
ENCODING 98
SWIDTH 559 0
DWIDTH 8 0
BBX 6 10 1 0
BITMAP
80
80
80
B8
C4
84
84
84
CC
B8
ENDCHAR
STARTCHAR c
ENCODING 99
SWIDTH 467 0
DWIDTH 7 0
BBX 5 7 1 0
BITMAP
78
80
80
80
80
88
78
ENDCHAR
STARTCHAR d
ENCODING 100
SWIDTH 559 0
DWIDTH 8 0
BBX 7 10 0 0
BITMAP
02
02
02
3A
46
42
C2
42
46
3A
ENDCHAR
STARTCHAR e
ENCODING 101
SWIDTH 524 0
DWIDTH 7 0
BBX 6 7 1 0
BITMAP
70
88
84
FC
80
88
7C
ENDCHAR
STARTCHAR f
ENCODING 102
SWIDTH 337 0
DWIDTH 5 0
BBX 5 10 0 0
BITMAP
38
60
60
F8
60
60
60
60
60
60
ENDCHAR
STARTCHAR g
ENCODING 103
SWIDTH 511 0
DWIDTH 7 0
BBX 7 9 0 -2
BITMAP
3E
44
44
38
40
7C
42
C6
7C
ENDCHAR
STARTCHAR h
ENCODING 104
SWIDTH 556 0
DWIDTH 8 0
BBX 6 10 1 0
BITMAP
80
80
80
B8
CC
84
84
84
84
84
ENDCHAR
STARTCHAR i
ENCODING 105
SWIDTH 256 0
DWIDTH 4 0
BBX 2 10 1 0
BITMAP
C0
80
00
80
80
80
80
80
80
80
ENDCHAR
STARTCHAR j
ENCODING 106
SWIDTH 254 0
DWIDTH 4 0
BBX 3 12 0 -2
BITMAP
60
40
00
40
40
40
40
40
40
40
40
C0
ENDCHAR
STARTCHAR k
ENCODING 107
SWIDTH 524 0
DWIDTH 7 0
BBX 6 10 1 0
BITMAP
80
80
80
8C
98
B0
E0
B0
98
8C
ENDCHAR
STARTCHAR l
ENCODING 108
SWIDTH 256 0
DWIDTH 4 0
BBX 1 10 1 0
BITMAP
80
80
80
80
80
80
80
80
80
80
ENDCHAR
STARTCHAR m
ENCODING 109
SWIDTH 821 0
DWIDTH 12 0
BBX 10 7 1 0
BITMAP
B380
CC80
88C0
88C0
88C0
88C0
88C0
ENDCHAR
STARTCHAR n
ENCODING 110
SWIDTH 556 0
DWIDTH 8 0
BBX 6 7 1 0
BITMAP
B8
CC
84
84
84
84
84
ENDCHAR
STARTCHAR o
ENCODING 111
SWIDTH 556 0
DWIDTH 8 0
BBX 7 7 0 0
BITMAP
3C
46
42
C2
42
46
3C
ENDCHAR
STARTCHAR p
ENCODING 112
SWIDTH 552 0
DWIDTH 8 0
BBX 6 9 1 -2
BITMAP
B8
CC
84
84
84
8C
F8
80
80
ENDCHAR
STARTCHAR q
ENCODING 113
SWIDTH 559 0
DWIDTH 8 0
BBX 7 9 0 -2
BITMAP
3A
46
42
C2
42
46
3A
02
02
ENDCHAR
STARTCHAR r
ENCODING 114
SWIDTH 403 0
DWIDTH 6 0
BBX 4 7 1 0
BITMAP
B0
C0
80
80
80
80
80
ENDCHAR
STARTCHAR s
ENCODING 115
SWIDTH 434 0
DWIDTH 6 0
BBX 5 7 0 0
BITMAP
78
40
40
38
08
88
78
ENDCHAR
STARTCHAR t
ENCODING 116
SWIDTH 373 0
DWIDTH 5 0
BBX 5 10 0 0
BITMAP
20
20
20
F8
60
60
60
60
60
38
ENDCHAR
STARTCHAR u
ENCODING 117
SWIDTH 556 0
DWIDTH 8 0
BBX 6 7 1 0
BITMAP
84
84
84
84
84
8C
74
ENDCHAR
STARTCHAR v
ENCODING 118
SWIDTH 512 0
DWIDTH 7 0
BBX 7 7 0 0
BITMAP
C2
44
44
2C
28
38
10
ENDCHAR
STARTCHAR w
ENCODING 119
SWIDTH 766 0
DWIDTH 11 0
BBX 11 7 0 0
BITMAP
C460
4C40
4A40
4A80
3280
3180
3180
ENDCHAR
STARTCHAR x
ENCODING 120
SWIDTH 504 0
DWIDTH 7 0
BBX 7 7 0 0
BITMAP
C6
6C
28
10
28
6C
C6
ENDCHAR
STARTCHAR y
ENCODING 121
SWIDTH 512 0
DWIDTH 7 0
BBX 7 9 0 -2
BITMAP
C2
44
64
28
28
18
10
30
20
ENDCHAR
STARTCHAR z
ENCODING 122
SWIDTH 462 0
DWIDTH 6 0
BBX 6 7 0 0
BITMAP
7C
08
18
10
20
40
FC
ENDCHAR
STARTCHAR braceleft
ENCODING 123
SWIDTH 300 0
DWIDTH 4 0
BBX 4 13 0 -2
BITMAP
30
40
40
40
40
40
80
40
40
40
40
40
30
ENDCHAR
STARTCHAR bar
ENCODING 124
SWIDTH 300 0
DWIDTH 4 0
BBX 1 13 2 -2
BITMAP
80
80
80
80
80
80
80
80
80
80
80
80
80
ENDCHAR
STARTCHAR braceright
ENCODING 125
SWIDTH 300 0
DWIDTH 4 0
BBX 3 13 1 -2
BITMAP
C0
40
40
40
40
40
20
40
40
40
40
40
C0
ENDCHAR
STARTCHAR asciitilde
ENCODING 126
SWIDTH 580 0
DWIDTH 8 0
BBX 6 2 1 3
BITMAP
E4
9C
ENDCHAR
STARTCHAR uni00A0
ENCODING 160
SWIDTH 193 0
DWIDTH 3 0
BBX 1 1 0 0
BITMAP
00
ENDCHAR
STARTCHAR exclamdown
ENCODING 161
SWIDTH 343 0
DWIDTH 5 0
BBX 1 9 2 -2
BITMAP
80
80
00
80
80
80
80
80
80
ENDCHAR
STARTCHAR cent
ENCODING 162
SWIDTH 580 0
DWIDTH 8 0
BBX 6 10 1 -2
BITMAP
10
3C
50
90
90
90
D4
7C
10
10
ENDCHAR
STARTCHAR sterling
ENCODING 163
SWIDTH 580 0
DWIDTH 8 0
BBX 8 10 0 0
BITMAP
1E
22
21
20
20
FC
20
20
20
7F
ENDCHAR
STARTCHAR currency
ENCODING 164
SWIDTH 580 0
DWIDTH 8 0
BBX 6 7 1 1
BITMAP
84
FC
48
84
48
FC
84
ENDCHAR
STARTCHAR yen
ENCODING 165
SWIDTH 580 0
DWIDTH 8 0
BBX 8 10 0 0
BITMAP
C3
42
66
24
3C
18
7E
7E
18
18
ENDCHAR
STARTCHAR brokenbar
ENCODING 166
SWIDTH 300 0
DWIDTH 4 0
BBX 1 13 2 -2
BITMAP
80
80
80
80
80
00
00
00
80
80
80
80
80
ENDCHAR
STARTCHAR section
ENCODING 167
SWIDTH 503 0
DWIDTH 7 0
BBX 5 11 1 -1
BITMAP
78
C0
C0
60
98
88
E8
30
08
88
70
ENDCHAR
STARTCHAR dieresis
ENCODING 168
SWIDTH 307 0
DWIDTH 4 0
BBX 4 1 0 9
BITMAP
D0
ENDCHAR
STARTCHAR copyright
ENCODING 169
SWIDTH 798 0
DWIDTH 11 0
BBX 11 10 0 0
BITMAP
1F00
2080
4E40
9140
9020
9020
9240
4F40
2080
1F00
ENDCHAR
STARTCHAR ordfeminine
ENCODING 170
SWIDTH 342 0
DWIDTH 5 0
BBX 3 5 1 5
BITMAP
E0
20
E0
A0
E0
ENDCHAR
STARTCHAR guillemotleft
ENCODING 171
SWIDTH 463 0
DWIDTH 6 0
BBX 4 5 1 1
BITMAP
50
D0
A0
50
50
ENDCHAR
STARTCHAR logicalnot
ENCODING 172
SWIDTH 580 0
DWIDTH 8 0
BBX 6 3 1 2
BITMAP
FC
04
04
ENDCHAR
STARTCHAR uni00AD
ENCODING 173
SWIDTH 347 0
DWIDTH 5 0
BBX 3 1 1 4
BITMAP
E0
ENDCHAR
STARTCHAR registered
ENCODING 174
SWIDTH 798 0
DWIDTH 11 0
BBX 11 10 0 0
BITMAP
1F00
2080
5E40
9940
9920
9E20
9A40
5940
2080
1F00
ENDCHAR
STARTCHAR macron
ENCODING 175
SWIDTH 307 0
DWIDTH 4 0
BBX 4 1 0 8
BITMAP
F0
ENDCHAR
STARTCHAR degree
ENCODING 176
SWIDTH 397 0
DWIDTH 6 0
BBX 5 5 0 5
BITMAP
70
48
88
48
70
ENDCHAR
STARTCHAR plusminus
ENCODING 177
SWIDTH 580 0
DWIDTH 8 0
BBX 6 8 1 1
BITMAP
10
10
10
FC
10
10
00
FC
ENDCHAR
STARTCHAR twosuperior
ENCODING 178
SWIDTH 332 0
DWIDTH 5 0
BBX 3 5 1 6
BITMAP
E0
A0
20
40
E0
ENDCHAR
STARTCHAR threesuperior
ENCODING 179
SWIDTH 332 0
DWIDTH 5 0
BBX 3 5 1 6
BITMAP
E0
A0
40
A0
E0
ENDCHAR
STARTCHAR acute
ENCODING 180
SWIDTH 307 0
DWIDTH 4 0
BBX 3 2 1 8
BITMAP
60
C0
ENDCHAR
STARTCHAR mu
ENCODING 181
SWIDTH 556 0
DWIDTH 8 0
BBX 6 9 1 -2
BITMAP
84
84
84
84
84
8C
F4
80
80
ENDCHAR
STARTCHAR paragraph
ENCODING 182
SWIDTH 669 0
DWIDTH 9 0
BBX 9 11 0 -1
BITMAP
7F80
7B00
FB00
FB00
7B00
1B00
1B00
1B00
1B00
1B00
1B00
ENDCHAR
STARTCHAR periodcentered
ENCODING 183
SWIDTH 273 0
DWIDTH 4 0
BBX 2 2 1 3
BITMAP
C0
C0
ENDCHAR
STARTCHAR cedilla
ENCODING 184
SWIDTH 307 0
DWIDTH 4 0
BBX 2 3 1 -2
BITMAP
80
C0
C0
ENDCHAR
STARTCHAR onesuperior
ENCODING 185
SWIDTH 332 0
DWIDTH 5 0
BBX 3 5 1 6
BITMAP
40
C0
40
40
E0
ENDCHAR
STARTCHAR ordmasculine
ENCODING 186
SWIDTH 381 0
DWIDTH 5 0
BBX 5 5 0 5
BITMAP
70
48
88
48
70
ENDCHAR
STARTCHAR guillemotright
ENCODING 187
SWIDTH 463 0
DWIDTH 6 0
BBX 4 5 1 1
BITMAP
A0
50
50
50
A0
ENDCHAR
STARTCHAR onequarter
ENCODING 188
SWIDTH 712 0
DWIDTH 10 0
BBX 9 10 1 0
BITMAP
4300
C200
4400
4400
E800
0900
1300
2500
2780
4100
ENDCHAR
STARTCHAR onehalf
ENCODING 189
SWIDTH 712 0
DWIDTH 10 0
BBX 9 10 1 0
BITMAP
4200
C200
4400
4800
E800
1300
1500
2100
4200
4780
ENDCHAR
STARTCHAR threequarters
ENCODING 190
SWIDTH 713 0
DWIDTH 10 0
BBX 10 10 0 0
BITMAP
7080
9100
2200
9200
7400
0480
0980
1280
13C0
2080
ENDCHAR
STARTCHAR questiondown
ENCODING 191
SWIDTH 398 0
DWIDTH 6 0
BBX 5 9 0 -2
BITMAP
30
30
00
10
30
40
C0
C8
78
ENDCHAR
STARTCHAR Agrave
ENCODING 192
SWIDTH 680 0
DWIDTH 10 0
BBX 9 13 0 0
BITMAP
3000
0800
0400
0C00
1C00
1400
1200
3200
2300
7F00
4100
4080
C080
ENDCHAR
STARTCHAR Aacute
ENCODING 193
SWIDTH 680 0
DWIDTH 10 0
BBX 9 13 0 0
BITMAP
0200
0C00
0000
0C00
1C00
1400
1200
3200
2300
7F00
4100
4080
C080
ENDCHAR
STARTCHAR Acircumflex
ENCODING 194
SWIDTH 680 0
DWIDTH 10 0
BBX 9 13 0 0
BITMAP
0800
1400
2200
0C00
1C00
1400
1200
3200
2300
7F00
4100
4080
C080
ENDCHAR
STARTCHAR Atilde
ENCODING 195
SWIDTH 680 0
DWIDTH 10 0
BBX 9 11 0 0
BITMAP
1E00
0C00
1C00
1400
1200
3200
2300
7F00
4100
4080
C080
ENDCHAR
STARTCHAR Adieresis
ENCODING 196
SWIDTH 680 0
DWIDTH 10 0
BBX 9 12 0 0
BITMAP
1600
0000
0C00
1C00
1400
1200
3200
2300
7F00
4100
4080
C080
ENDCHAR
STARTCHAR Aring
ENCODING 197
SWIDTH 680 0
DWIDTH 10 0
BBX 9 13 0 0
BITMAP
0C00
1400
0C00
0C00
1C00
1400
1200
3200
2300
7F00
4100
4080
C080
ENDCHAR
STARTCHAR AE
ENCODING 198
SWIDTH 929 0
DWIDTH 13 0
BBX 12 10 0 0
BITMAP
07F0
0E00
0A00
1200
1200
23E0
3F00
4100
4100
81F0
ENDCHAR
STARTCHAR Ccedilla
ENCODING 199
SWIDTH 685 0
DWIDTH 10 0
BBX 8 12 1 -2
BITMAP
3E
61
C0
80
80
80
80
C0
61
3E
08
1C
ENDCHAR
STARTCHAR Egrave
ENCODING 200
SWIDTH 581 0
DWIDTH 8 0
BBX 6 13 1 0
BITMAP
40
30
00
FC
C0
C0
C0
C0
F8
C0
C0
C0
FC
ENDCHAR
STARTCHAR Eacute
ENCODING 201
SWIDTH 581 0
DWIDTH 8 0
BBX 6 13 1 0
BITMAP
0C
10
20
FC
C0
C0
C0
C0
F8
C0
C0
C0
FC
ENDCHAR
STARTCHAR Ecircumflex
ENCODING 202
SWIDTH 581 0
DWIDTH 8 0
BBX 6 13 1 0
BITMAP
10
28
44
FC
C0
C0
C0
C0
F8
C0
C0
C0
FC
ENDCHAR
STARTCHAR Edieresis
ENCODING 203
SWIDTH 581 0
DWIDTH 8 0
BBX 6 12 1 0
BITMAP
6C
00
FC
C0
C0
C0
C0
F8
C0
C0
C0
FC
ENDCHAR
STARTCHAR Igrave
ENCODING 204
SWIDTH 307 0
DWIDTH 4 0
BBX 3 13 0 0
BITMAP
80
60
00
60
60
60
60
60
60
60
60
60
60
ENDCHAR
STARTCHAR Iacute
ENCODING 205
SWIDTH 307 0
DWIDTH 4 0
BBX 4 13 1 0
BITMAP
30
40
80
C0
C0
C0
C0
C0
C0
C0
C0
C0
C0
ENDCHAR
STARTCHAR Icircumflex
ENCODING 206
SWIDTH 307 0
DWIDTH 4 0
BBX 4 13 0 0
BITMAP
20
D0
00
60
60
60
60
60
60
60
60
60
60
ENDCHAR
STARTCHAR Idieresis
ENCODING 207
SWIDTH 307 0
DWIDTH 4 0
BBX 4 12 0 0
BITMAP
90
00
60
60
60
60
60
60
60
60
60
60
ENDCHAR
STARTCHAR Eth
ENCODING 208
SWIDTH 789 0
DWIDTH 11 0
BBX 10 10 0 0
BITMAP
3F00
2180
20C0
2040
2040
FC40
2040
20C0
2180
3F00
ENDCHAR
STARTCHAR Ntilde
ENCODING 209
SWIDTH 756 0
DWIDTH 11 0
BBX 8 11 1 0
BITMAP
1E
E1
C1
A1
B1
99
89
85
87
83
81
ENDCHAR
STARTCHAR Ograve
ENCODING 210
SWIDTH 798 0
DWIDTH 11 0
BBX 10 13 1 0
BITMAP
2000
1800
0400
3E00
6100
C080
8080
80C0
80C0
8080
C080
6100
3E00
ENDCHAR
STARTCHAR Oacute
ENCODING 211
SWIDTH 798 0
DWIDTH 11 0
BBX 10 13 1 0
BITMAP
0200
0C00
0000
3E00
6100
C080
8080
80C0
80C0
8080
C080
6100
3E00
ENDCHAR
STARTCHAR Ocircumflex
ENCODING 212
SWIDTH 798 0
DWIDTH 11 0
BBX 10 13 1 0
BITMAP
0800
1400
2200
3E00
6100
C080
8080
80C0
80C0
8080
C080
6100
3E00
ENDCHAR
STARTCHAR Otilde
ENCODING 213
SWIDTH 798 0
DWIDTH 11 0
BBX 10 11 1 0
BITMAP
1E00
3E00
6100
C080
8080
80C0
80C0
8080
C080
6100
3E00
ENDCHAR
STARTCHAR Odieresis
ENCODING 214
SWIDTH 798 0
DWIDTH 11 0
BBX 10 12 1 0
BITMAP
3600
0000
3E00
6100
C080
8080
80C0
80C0
8080
C080
6100
3E00
ENDCHAR
STARTCHAR multiply
ENCODING 215
SWIDTH 580 0
DWIDTH 8 0
BBX 6 7 1 1
BITMAP
84
CC
78
30
78
C4
80
ENDCHAR
STARTCHAR Oslash
ENCODING 216
SWIDTH 798 0
DWIDTH 11 0
BBX 10 11 1 -1
BITMAP
3E80
6100
C380
8480
84C0
88C0
9080
E080
6100
7E00
8000
ENDCHAR
STARTCHAR Ugrave
ENCODING 217
SWIDTH 730 0
DWIDTH 10 0
BBX 8 13 1 0
BITMAP
20
10
08
81
81
81
81
81
81
81
C1
42
3C
ENDCHAR
STARTCHAR Uacute
ENCODING 218
SWIDTH 730 0
DWIDTH 10 0
BBX 8 13 1 0
BITMAP
06
08
10
81
81
81
81
81
81
81
C1
42
3C
ENDCHAR
STARTCHAR Ucircumflex
ENCODING 219
SWIDTH 730 0
DWIDTH 10 0
BBX 8 13 1 0
BITMAP
18
34
00
81
81
81
81
81
81
81
C1
42
3C
ENDCHAR
STARTCHAR Udieresis
ENCODING 220
SWIDTH 730 0
DWIDTH 10 0
BBX 8 12 1 0
BITMAP
24
00
81
81
81
81
81
81
81
C1
42
3C
ENDCHAR
STARTCHAR Yacute
ENCODING 221
SWIDTH 629 0
DWIDTH 9 0
BBX 9 13 0 0
BITMAP
0600
0800
1000
C180
4300
2200
3600
1400
1800
0800
0800
0800
0800
ENDCHAR
STARTCHAR Thorn
ENCODING 222
SWIDTH 611 0
DWIDTH 9 0
BBX 7 10 1 0
BITMAP
C0
C0
FC
C6
C2
C2
C6
FC
C0
C0
ENDCHAR
STARTCHAR germandbls
ENCODING 223
SWIDTH 609 0
DWIDTH 9 0
BBX 7 10 1 0
BITMAP
3C
44
C6
CC
D8
D8
CE
C2
E2
DC
ENDCHAR
STARTCHAR agrave
ENCODING 224
SWIDTH 507 0
DWIDTH 7 0
BBX 5 10 1 0
BITMAP
60
20
10
70
88
08
78
88
88
F8
ENDCHAR
STARTCHAR aacute
ENCODING 225
SWIDTH 507 0
DWIDTH 7 0
BBX 5 10 1 0
BITMAP
18
20
00
70
88
08
78
88
88
F8
ENDCHAR
STARTCHAR acircumflex
ENCODING 226
SWIDTH 507 0
DWIDTH 7 0
BBX 5 10 1 0
BITMAP
30
50
08
70
88
08
78
88
88
F8
ENDCHAR
STARTCHAR atilde
ENCODING 227
SWIDTH 507 0
DWIDTH 7 0
BBX 5 10 1 0
BITMAP
68
90
00
70
88
08
78
88
88
F8
ENDCHAR
STARTCHAR adieresis
ENCODING 228
SWIDTH 507 0
DWIDTH 7 0
BBX 5 10 1 0
BITMAP
58
00
00
70
88
08
78
88
88
F8
ENDCHAR
STARTCHAR aring
ENCODING 229
SWIDTH 507 0
DWIDTH 7 0
BBX 5 10 1 0
BITMAP
30
50
30
70
88
08
78
88
88
F8
ENDCHAR
STARTCHAR ae
ENCODING 230
SWIDTH 816 0
DWIDTH 11 0
BBX 10 7 1 0
BITMAP
7780
8C80
0840
7FC0
8800
8C80
F7C0
ENDCHAR
STARTCHAR ccedilla
ENCODING 231
SWIDTH 467 0
DWIDTH 7 0
BBX 5 9 1 -2
BITMAP
78
80
80
80
80
C8
70
30
30
ENDCHAR
STARTCHAR egrave
ENCODING 232
SWIDTH 524 0
DWIDTH 7 0
BBX 6 10 1 0
BITMAP
60
20
10
70
88
84
FC
80
88
7C
ENDCHAR
STARTCHAR eacute
ENCODING 233
SWIDTH 524 0
DWIDTH 7 0
BBX 6 10 1 0
BITMAP
18
30
00
70
88
84
FC
80
88
7C
ENDCHAR
STARTCHAR ecircumflex
ENCODING 234
SWIDTH 524 0
DWIDTH 7 0
BBX 6 10 1 0
BITMAP
30
48
00
70
88
84
FC
80
88
7C
ENDCHAR
STARTCHAR edieresis
ENCODING 235
SWIDTH 524 0
DWIDTH 7 0
BBX 6 10 1 0
BITMAP
58
00
00
70
88
84
FC
80
88
7C
ENDCHAR
STARTCHAR igrave
ENCODING 236
SWIDTH 256 0
DWIDTH 4 0
BBX 3 10 0 0
BITMAP
C0
40
20
40
40
40
40
40
40
40
ENDCHAR
STARTCHAR iacute
ENCODING 237
SWIDTH 256 0
DWIDTH 4 0
BBX 3 10 1 0
BITMAP
60
C0
00
80
80
80
80
80
80
80
ENDCHAR
STARTCHAR icircumflex
ENCODING 238
SWIDTH 256 0
DWIDTH 4 0
BBX 4 10 0 0
BITMAP
60
B0
00
40
40
40
40
40
40
40
ENDCHAR
STARTCHAR idieresis
ENCODING 239
SWIDTH 256 0
DWIDTH 4 0
BBX 4 10 0 0
BITMAP
B0
00
00
40
40
40
40
40
40
40
ENDCHAR
STARTCHAR eth
ENCODING 240
SWIDTH 553 0
DWIDTH 8 0
BBX 6 9 1 0
BITMAP
78
38
0C
74
8C
84
84
8C
78
ENDCHAR
STARTCHAR ntilde
ENCODING 241
SWIDTH 556 0
DWIDTH 8 0
BBX 6 10 1 0
BITMAP
68
58
00
B8
CC
84
84
84
84
84
ENDCHAR
STARTCHAR ograve
ENCODING 242
SWIDTH 556 0
DWIDTH 8 0
BBX 7 10 0 0
BITMAP
30
10
08
3C
46
42
C2
42
46
3C
ENDCHAR
STARTCHAR oacute
ENCODING 243
SWIDTH 556 0
DWIDTH 8 0
BBX 7 10 0 0
BITMAP
0C
18
00
3C
46
42
C2
42
46
3C
ENDCHAR
STARTCHAR ocircumflex
ENCODING 244
SWIDTH 556 0
DWIDTH 8 0
BBX 7 10 0 0
BITMAP
18
24
00
3C
46
42
C2
42
46
3C
ENDCHAR
STARTCHAR otilde
ENCODING 245
SWIDTH 556 0
DWIDTH 8 0
BBX 7 10 0 0
BITMAP
34
2C
00
3C
46
42
C2
42
46
3C
ENDCHAR
STARTCHAR odieresis
ENCODING 246
SWIDTH 556 0
DWIDTH 8 0
BBX 7 10 0 0
BITMAP
2C
00
00
3C
46
42
C2
42
46
3C
ENDCHAR
STARTCHAR divide
ENCODING 247
SWIDTH 580 0
DWIDTH 8 0
BBX 6 7 1 1
BITMAP
30
30
00
FC
00
30
30
ENDCHAR
STARTCHAR oslash
ENCODING 248
SWIDTH 556 0
DWIDTH 8 0
BBX 7 9 0 -1
BITMAP
02
3E
46
4A
52
52
66
7C
80
ENDCHAR
STARTCHAR ugrave
ENCODING 249
SWIDTH 556 0
DWIDTH 8 0
BBX 6 10 1 0
BITMAP
60
20
10
84
84
84
84
84
8C
74
ENDCHAR
STARTCHAR uacute
ENCODING 250
SWIDTH 556 0
DWIDTH 8 0
BBX 6 10 1 0
BITMAP
18
30
00
84
84
84
84
84
8C
74
ENDCHAR
STARTCHAR ucircumflex
ENCODING 251
SWIDTH 556 0
DWIDTH 8 0
BBX 6 10 1 0
BITMAP
30
48
00
84
84
84
84
84
8C
74
ENDCHAR
STARTCHAR udieresis
ENCODING 252
SWIDTH 556 0
DWIDTH 8 0
BBX 6 10 1 0
BITMAP
58
00
00
84
84
84
84
84
8C
74
ENDCHAR
STARTCHAR yacute
ENCODING 253
SWIDTH 512 0
DWIDTH 7 0
BBX 7 12 0 -2
BITMAP
0C
10
00
C2
44
64
28
28
18
10
30
20
ENDCHAR
STARTCHAR thorn
ENCODING 254
SWIDTH 552 0
DWIDTH 8 0
BBX 6 12 1 -2
BITMAP
80
80
80
B8
CC
84
84
84
8C
F8
80
80
ENDCHAR
STARTCHAR ydieresis
ENCODING 255
SWIDTH 512 0
DWIDTH 7 0
BBX 7 12 0 -2
BITMAP
2C
00
00
C2
44
64
28
28
18
10
30
20
ENDCHAR
STARTCHAR Aogonek
ENCODING 260
SWIDTH 680 0
DWIDTH 10 0
BBX 10 12 0 -2
BITMAP
0C00
1C00
1400
1200
3200
2300
7F00
4100
4080
C080
0100
00C0
ENDCHAR
STARTCHAR aogonek
ENCODING 261
SWIDTH 507 0
DWIDTH 7 0
BBX 6 9 1 -2
BITMAP
70
88
08
78
88
88
F8
10
0C
ENDCHAR
STARTCHAR Cacute
ENCODING 262
SWIDTH 685 0
DWIDTH 10 0
BBX 8 13 1 0
BITMAP
02
0C
00
3E
61
C0
80
80
80
80
C0
61
3E
ENDCHAR
STARTCHAR cacute
ENCODING 263
SWIDTH 467 0
DWIDTH 7 0
BBX 5 10 1 0
BITMAP
18
30
00
78
80
80
80
80
88
78
ENDCHAR
STARTCHAR Eogonek
ENCODING 280
SWIDTH 594 0
DWIDTH 8 0
BBX 7 12 1 -2
BITMAP
FC
C0
C0
C0
F8
C0
C0
C0
C0
FC
08
0E
ENDCHAR
STARTCHAR eogonek
ENCODING 281
SWIDTH 524 0
DWIDTH 7 0
BBX 6 9 1 -2
BITMAP
78
8C
FC
80
80
C8
7C
20
38
ENDCHAR
STARTCHAR dotlessi
ENCODING 305
SWIDTH 256 0
DWIDTH 4 0
BBX 1 7 1 0
BITMAP
80
80
80
80
80
80
80
ENDCHAR
STARTCHAR Lslash
ENCODING 321
SWIDTH 543 0
DWIDTH 8 0
BBX 7 10 0 0
BITMAP
20
20
20
24
38
60
A0
20
20
3E
ENDCHAR
STARTCHAR lslash
ENCODING 322
SWIDTH 321 0
DWIDTH 5 0
BBX 4 10 0 0
BITMAP
20
20
20
30
70
A0
20
20
20
20
ENDCHAR
STARTCHAR Nacute
ENCODING 323
SWIDTH 756 0
DWIDTH 11 0
BBX 8 13 1 0
BITMAP
06
08
10
C1
C1
A1
B1
99
89
85
87
83
81
ENDCHAR
STARTCHAR nacute
ENCODING 324
SWIDTH 556 0
DWIDTH 8 0
BBX 6 10 1 0
BITMAP
18
10
20
B8
CC
84
84
84
84
84
ENDCHAR
STARTCHAR OE
ENCODING 338
SWIDTH 1096 0
DWIDTH 15 0
BBX 14 10 1 0
BITMAP
3CFC
4280
C180
8180
8180
81F8
8180
C180
4380
3CFC
ENDCHAR
STARTCHAR oe
ENCODING 339
SWIDTH 867 0
DWIDTH 12 0
BBX 12 7 0 0
BITMAP
39C0
4620
4220
C3F0
4200
4620
39F0
ENDCHAR
STARTCHAR Sacute
ENCODING 346
SWIDTH 548 0
DWIDTH 8 0
BBX 7 13 0 0
BITMAP
04
08
10
3C
46
40
60
78
0E
06
02
44
F8
ENDCHAR
STARTCHAR sacute
ENCODING 347
SWIDTH 434 0
DWIDTH 6 0
BBX 5 10 0 0
BITMAP
18
10
00
78
40
40
38
08
88
78
ENDCHAR
STARTCHAR Scaron
ENCODING 352
SWIDTH 530 0
DWIDTH 7 0
BBX 7 13 0 0
BITMAP
24
18
00
3C
46
40
60
78
0E
06
02
44
F8
ENDCHAR
STARTCHAR scaron
ENCODING 353
SWIDTH 434 0
DWIDTH 6 0
BBX 5 10 0 0
BITMAP
68
30
00
78
40
40
38
08
88
78
ENDCHAR
STARTCHAR Ydieresis
ENCODING 376
SWIDTH 629 0
DWIDTH 9 0
BBX 9 12 0 0
BITMAP
3600
0000
C180
4300
2200
3600
1400
1800
0800
0800
0800
0800
ENDCHAR
STARTCHAR Zacute
ENCODING 377
SWIDTH 624 0
DWIDTH 9 0
BBX 7 13 1 0
BITMAP
04
18
20
FE
06
0C
08
18
30
20
40
C0
FE
ENDCHAR
STARTCHAR zacute
ENCODING 378
SWIDTH 462 0
DWIDTH 6 0
BBX 6 10 0 0
BITMAP
08
10
00
7C
08
18
10
20
40
FC
ENDCHAR
STARTCHAR Zdotaccent
ENCODING 379
SWIDTH 624 0
DWIDTH 9 0
BBX 7 13 1 0
BITMAP
10
10
00
FE
06
0C
08
18
30
20
40
C0
FE
ENDCHAR
STARTCHAR zdotaccent
ENCODING 380
SWIDTH 462 0
DWIDTH 6 0
BBX 6 10 0 0
BITMAP
10
10
00
7C
08
18
10
20
40
FC
ENDCHAR
STARTCHAR Zcaron
ENCODING 381
SWIDTH 624 0
DWIDTH 9 0
BBX 7 13 1 0
BITMAP
44
38
00
FE
06
0C
08
18
30
20
40
C0
FE
ENDCHAR
STARTCHAR zcaron
ENCODING 382
SWIDTH 462 0
DWIDTH 6 0
BBX 6 10 0 0
BITMAP
6C
30
00
7C
08
18
10
20
40
FC
ENDCHAR
STARTCHAR florin
ENCODING 402
SWIDTH 580 0
DWIDTH 8 0
BBX 6 12 1 -2
BITMAP
0C
10
10
7C
30
30
20
20
20
20
60
C0
ENDCHAR
STARTCHAR circumflex
ENCODING 710
SWIDTH 307 0
DWIDTH 4 0
BBX 4 2 0 8
BITMAP
60
D0
ENDCHAR
STARTCHAR caron
ENCODING 711
SWIDTH 307 0
DWIDTH 4 0
BBX 4 2 0 8
BITMAP
D0
60
ENDCHAR
STARTCHAR uni02C9
ENCODING 713
SWIDTH 307 0
DWIDTH 4 0
BBX 4 1 0 8
BITMAP
F0
ENDCHAR
STARTCHAR breve
ENCODING 728
SWIDTH 307 0
DWIDTH 4 0
BBX 4 2 0 8
BITMAP
90
70
ENDCHAR
STARTCHAR dotaccent
ENCODING 729
SWIDTH 307 0
DWIDTH 4 0
BBX 2 2 1 8
BITMAP
C0
C0
ENDCHAR
STARTCHAR ring
ENCODING 730
SWIDTH 307 0
DWIDTH 4 0
BBX 3 3 1 7
BITMAP
C0
A0
C0
ENDCHAR
STARTCHAR ogonek
ENCODING 731
SWIDTH 307 0
DWIDTH 4 0
BBX 2 3 1 -2
BITMAP
80
C0
C0
ENDCHAR
STARTCHAR tilde
ENCODING 732
SWIDTH 307 0
DWIDTH 4 0
BBX 4 2 0 8
BITMAP
50
B0
ENDCHAR
STARTCHAR hungarumlaut
ENCODING 733
SWIDTH 307 0
DWIDTH 4 0
BBX 4 2 1 8
BITMAP
50
E0
ENDCHAR
STARTCHAR pi
ENCODING 960
SWIDTH 618 0
DWIDTH 9 0
BBX 8 7 0 0
BITMAP
FF
22
22
22
22
22
E2
ENDCHAR
STARTCHAR endash
ENCODING 8211
SWIDTH 556 0
DWIDTH 8 0
BBX 6 1 1 4
BITMAP
FC
ENDCHAR
STARTCHAR emdash
ENCODING 8212
SWIDTH 821 0
DWIDTH 12 0
BBX 9 1 1 4
BITMAP
FF80
ENDCHAR
STARTCHAR quoteleft
ENCODING 8216
SWIDTH 212 0
DWIDTH 3 0
BBX 2 3 0 7
BITMAP
40
80
40
ENDCHAR
STARTCHAR quoteright
ENCODING 8217
SWIDTH 212 0
DWIDTH 3 0
BBX 1 3 1 7
BITMAP
80
80
80
ENDCHAR
STARTCHAR quotesinglbase
ENCODING 8218
SWIDTH 212 0
DWIDTH 3 0
BBX 1 4 1 -2
BITMAP
80
80
80
80
ENDCHAR
STARTCHAR quotedblleft
ENCODING 8220
SWIDTH 364 0
DWIDTH 5 0
BBX 4 3 0 7
BITMAP
50
90
50
ENDCHAR
STARTCHAR quotedblright
ENCODING 8221
SWIDTH 364 0
DWIDTH 5 0
BBX 3 3 1 7
BITMAP
A0
A0
A0
ENDCHAR
STARTCHAR quotedblbase
ENCODING 8222
SWIDTH 364 0
DWIDTH 5 0
BBX 3 4 1 -2
BITMAP
A0
A0
A0
A0
ENDCHAR
STARTCHAR dagger
ENCODING 8224
SWIDTH 580 0
DWIDTH 8 0
BBX 6 12 1 -2
BITMAP
30
30
10
FC
10
10
10
10
10
30
30
30
ENDCHAR
STARTCHAR daggerdbl
ENCODING 8225
SWIDTH 580 0
DWIDTH 8 0
BBX 6 12 1 -2
BITMAP
30
30
10
FC
10
10
10
10
FC
10
30
30
ENDCHAR
STARTCHAR bullet
ENCODING 8226
SWIDTH 580 0
DWIDTH 8 0
BBX 6 5 1 2
BITMAP
78
78
FC
78
78
ENDCHAR
STARTCHAR ellipsis
ENCODING 8230
SWIDTH 727 0
DWIDTH 10 0
BBX 9 2 1 0
BITMAP
9900
9980
ENDCHAR
STARTCHAR perthousand
ENCODING 8240
SWIDTH 1153 0
DWIDTH 16 0
BBX 16 10 0 0
BITMAP
70C0
4880
8900
4A00
7400
05CE
0A52
1251
2272
61CE
ENDCHAR
STARTCHAR guilsinglleft
ENCODING 8249
SWIDTH 316 0
DWIDTH 4 0
BBX 2 5 1 1
BITMAP
40
C0
80
40
40
ENDCHAR
STARTCHAR guilsinglright
ENCODING 8250
SWIDTH 316 0
DWIDTH 4 0
BBX 2 5 1 1
BITMAP
80
40
40
40
80
ENDCHAR
STARTCHAR fraction
ENCODING 8260
SWIDTH 307 0
DWIDTH 4 0
BBX 7 10 -1 0
BITMAP
06
04
08
08
10
20
20
40
40
80
ENDCHAR
STARTCHAR Euro
ENCODING 8364
SWIDTH 580 0
DWIDTH 8 0
BBX 8 10 0 0
BITMAP
1E
31
20
60
FC
FC
60
20
31
1E
ENDCHAR
STARTCHAR trademark
ENCODING 8482
SWIDTH 720 0
DWIDTH 10 0
BBX 9 4 0 6
BITMAP
F480
2580
2B80
2A80
ENDCHAR
STARTCHAR Omega
ENCODING 8486
SWIDTH 747 0
DWIDTH 10 0
BBX 9 10 1 0
BITMAP
3E00
4300
8180
8180
8180
8180
C300
3600
1400
F780
ENDCHAR
STARTCHAR partialdiff
ENCODING 8706
SWIDTH 580 0
DWIDTH 8 0
BBX 7 10 1 0
BITMAP
38
44
04
7E
C4
84
84
84
88
70
ENDCHAR
STARTCHAR Delta
ENCODING 8710
SWIDTH 696 0
DWIDTH 10 0
BBX 10 10 0 0
BITMAP
0C00
0C00
1E00
1200
3200
2300
2100
4180
4080
FFC0
ENDCHAR
STARTCHAR product
ENCODING 8719
SWIDTH 684 0
DWIDTH 10 0
BBX 9 12 0 -2
BITMAP
FF80
2100
2100
2100
2100
2100
2100
2100
2100
2100
2100
2100
ENDCHAR
STARTCHAR summation
ENCODING 8721
SWIDTH 684 0
DWIDTH 10 0
BBX 8 12 1 -2
BITMAP
FF
C0
60
30
10
08
0C
10
30
60
C0
FF
ENDCHAR
STARTCHAR minus
ENCODING 8722
SWIDTH 580 0
DWIDTH 8 0
BBX 6 1 1 4
BITMAP
FC
ENDCHAR
STARTCHAR radical
ENCODING 8730
SWIDTH 573 0
DWIDTH 8 0
BBX 9 12 0 0
BITMAP
0080
0100
0100
0100
0200
0200
0200
E400
3400
1400
1800
0800
ENDCHAR
STARTCHAR infinity
ENCODING 8734
SWIDTH 684 0
DWIDTH 10 0
BBX 9 5 0 2
BITMAP
7300
4C80
8880
4C80
7300
ENDCHAR
STARTCHAR integral
ENCODING 8747
SWIDTH 400 0
DWIDTH 6 0
BBX 7 12 -1 -2
BITMAP
06
08
08
18
18
10
10
10
10
10
30
E0
ENDCHAR
STARTCHAR approxequal
ENCODING 8776
SWIDTH 580 0
DWIDTH 8 0
BBX 6 4 1 3
BITMAP
64
9C
64
9C
ENDCHAR
STARTCHAR notequal
ENCODING 8800
SWIDTH 580 0
DWIDTH 8 0
BBX 6 6 1 2
BITMAP
08
08
FC
10
FC
60
ENDCHAR
STARTCHAR lessequal
ENCODING 8804
SWIDTH 580 0
DWIDTH 8 0
BBX 5 7 1 1
BITMAP
18
60
C0
30
08
00
F8
ENDCHAR
STARTCHAR greaterequal
ENCODING 8805
SWIDTH 580 0
DWIDTH 8 0
BBX 5 7 2 1
BITMAP
C0
30
18
60
80
00
F8
ENDCHAR
STARTCHAR lozenge
ENCODING 9674
SWIDTH 580 0
DWIDTH 8 0
BBX 6 11 1 -1
BITMAP
30
30
48
48
84
84
84
48
48
30
30
ENDCHAR
STARTCHAR uni2669
ENCODING 9833
SWIDTH 0 0
DWIDTH 0 0
BBX 1 12 0 -2
BITMAP
80
80
80
80
80
80
80
80
80
80
80
80
ENDCHAR
STARTCHAR fi
ENCODING 64257
SWIDTH 570 0
DWIDTH 8 0
BBX 7 10 0 0
BITMAP
3C
20
60
FE
62
62
62
62
62
62
ENDCHAR
STARTCHAR fl
ENCODING 64258
SWIDTH 594 0
DWIDTH 8 0
BBX 7 10 0 0
BITMAP
3E
22
62
F2
62
62
62
62
62
62
ENDCHAR
STARTCHAR .notdef
ENCODING -1
SWIDTH 531 0
DWIDTH 7 0
BBX 7 10 0 0
BITMAP
FE
BA
8E
8E
9A
92
82
92
82
FE
ENDCHAR
STARTCHAR grave.case
ENCODING -1
SWIDTH 307 0
DWIDTH 4 0
BBX 3 2 0 11
BITMAP
80
60
ENDCHAR
STARTCHAR dieresis.case
ENCODING -1
SWIDTH 307 0
DWIDTH 4 0
BBX 4 1 0 11
BITMAP
90
ENDCHAR
STARTCHAR macron.case
ENCODING -1
SWIDTH 307 0
DWIDTH 4 0
BBX 4 1 0 11
BITMAP
F0
ENDCHAR
STARTCHAR acute.case
ENCODING -1
SWIDTH 307 0
DWIDTH 4 0
BBX 4 2 1 11
BITMAP
30
C0
ENDCHAR
STARTCHAR circumflex.case
ENCODING -1
SWIDTH 307 0
DWIDTH 4 0
BBX 4 2 0 11
BITMAP
20
D0
ENDCHAR
STARTCHAR caron.case
ENCODING -1
SWIDTH 307 0
DWIDTH 4 0
BBX 4 2 0 11
BITMAP
90
60
ENDCHAR
STARTCHAR breve.case
ENCODING -1
SWIDTH 307 0
DWIDTH 4 0
BBX 4 2 0 10
BITMAP
90
70
ENDCHAR
STARTCHAR dotaccent.case
ENCODING -1
SWIDTH 307 0
DWIDTH 4 0
BBX 2 2 1 11
BITMAP
C0
C0
ENDCHAR
STARTCHAR ring.case
ENCODING -1
SWIDTH 307 0
DWIDTH 4 0
BBX 2 3 1 10
BITMAP
C0
C0
C0
ENDCHAR
STARTCHAR tilde.case
ENCODING -1
SWIDTH 307 0
DWIDTH 4 0
BBX 4 1 0 10
BITMAP
F0
ENDCHAR
STARTCHAR hungarumlaut.case
ENCODING -1
SWIDTH 307 0
DWIDTH 4 0
BBX 4 1 1 11
BITMAP
F0
ENDCHAR
ENDFONT
